<svg xmlns="http://www.w3.org/2000/svg" viewBox="0 0 24 24" width="24" height="24"><title>filter picture</title><g class="nc-icon-wrapper" fill="#000000"><defs/><path class="cls-1" d="M23.5 1.5a1 1 0 0 0-1-1h-18a1 1 0 0 0-1 1v18a1 1 0 0 0 1 1h18a1 1 0 0 0 1-1z" fill="none" stroke="#000000" stroke-linecap="round" stroke-linejoin="round"/><path class="cls-1" d="M21 16.5l-2.657-7.086a.5.5 0 0 0-.884-.1L14 14.5l-2.049-2.459a.5.5 0 0 0-.813.063L8.5 16.5" fill="none" stroke="#000000" stroke-linecap="round" stroke-linejoin="round"/><circle class="cls-1" cx="10" cy="6" r="1.5" fill="none" stroke="#000000" stroke-linecap="round" stroke-linejoin="round"/><path class="cls-1" d="M23.5 16.5h-20" fill="none" stroke="#000000" stroke-linecap="round" stroke-linejoin="round"/><path class="cls-1" d="M3.5 4.5h-2a1 1 0 0 0-1 1v17a1 1 0 0 0 1 1h17a1 1 0 0 0 1-1v-2" fill="none" stroke="#000000" stroke-linecap="round" stroke-linejoin="round"/></g></svg>